 <svg version="1.0" xmlns="http://www.w3.org/2000/svg"  width="128.000000pt" height="128.000000pt" viewBox="0 0 128.000000 128.000000"  preserveAspectRatio="xMidYMid meet">  <g transform="translate(0.000000,128.000000) scale(0.100000,-0.100000)" fill="#000000" stroke="none"> <path d="M160 961 l0 -311 143 0 c163 0 228 14 269 57 72 75 61 204 -20 245 -33 16 -33 17 -12 28 58 31 80 143 40 208 -37 60 -92 76 -267 80 l-153 4 0 -311z m321 266 c48 -17 69 -35 86 -76 20 -47 8 -104 -28 -138 -37 -35 -37 -57 0 -79 37 -22 51 -53 51 -112 0 -65 -17 -93 -72 -119 -40 -20 -64 -23 -182 -24 -75 -1 -138 0 -140 2 -7 7 -16 528 -10 544 5 12 29 15 133 15 75 0 141 -5 162 -13z"/> <path d="M282 1184 c-20 -13 -22 -24 -22 -93 0 -94 13 -111 81 -111 103 0 159 39 159 111 0 25 -8 47 -22 64 -37 42 -153 60 -196 29z m179 -43 c10 -13 19 -36 19 -51 0 -15 -9 -38 -19 -51 -17 -21 -30 -24 -100 -27 l-81 -4 0 82 0 82 81 -4 c70 -3 83 -6 100 -27z"/> <path d="M277 932 c-25 -28 -24 -172 1 -195 21 -19 123 -24 165 -8 94 36 104 157 16 202 -52 26 -159 27 -182 1z m177 -23 c28 -13 51 -68 41 -99 -14 -43 -52 -60 -136 -60 l-79 0 0 85 0 85 75 0 c41 0 85 -5 99 -11z"/> <path d="M795 1256 c-45 -20 -85 -68 -92 -109 l-6 -37 62 0 c46 0 61 3 61 14 0 24 50 56 87 56 44 0 83 -37 83 -80 0 -51 -38 -80 -105 -80 l-55 0 0 -50 0 -50 50 0 c60 0 94 -15 109 -47 46 -101 -71 -182 -150 -103 -17 16 -28 34 -24 40 4 6 -18 10 -59 10 -76 0 -79 -6 -47 -77 13 -29 33 -49 65 -68 40 -23 57 -27 130 -27 139 0 206 51 214 162 5 70 -14 113 -64 142 l-35 21 30 18 c88 54 80 199 -14 254 -36 21 -54 25 -126 25 -48 -1 -97 -7 -114 -14z m169 -10 c72 -17 112 -55 117 -111 4 -59 -2 -76 -41 -119 l-41 -44 45 -44 c50 -50 65 -96 47 -151 -16 -47 -46 -73 -121 -102 l-64 -25 -68 26 c-41 16 -77 37 -93 56 -36 43 -33 58 14 58 30 0 41 -5 46 -19 11 -35 63 -60 114 -55 66 6 101 46 101 115 0 44 -4 55 -31 80 -17 16 -36 30 -43 30 -6 1 -27 3 -46 4 -19 2 -38 4 -42 4 -3 1 -4 10 -1 21 5 18 24 25 71 23 7 -1 28 14 47 32 30 27 35 39 35 76 0 61 -37 99 -97 99 -48 0 -97 -21 -106 -45 -8 -20 -77 -21 -77 -1 0 27 44 66 95 86 48 18 77 19 139 6z"/> <path d="M160 321 l0 -311 143 0 c163 0 228 14 269 57 72 75 61 204 -20 245 -33 16 -33 17 -12 28 58 31 80 143 40 208 -37 60 -92 76 -267 80 l-153 4 0 -311z m321 266 c48 -17 69 -35 86 -76 20 -47 8 -104 -28 -138 -37 -35 -37 -57 0 -79 37 -22 51 -53 51 -112 0 -65 -17 -93 -71 -119 -40 -19 -65 -23 -175 -23 -71 -1 -136 -1 -145 -1 -15 1 -16 29 -16 269 0 147 2 273 5 280 6 17 244 16 293 -1z"/> <path d="M282 544 c-20 -13 -22 -24 -22 -93 0 -94 13 -111 81 -111 103 0 159 39 159 111 0 25 -8 47 -22 64 -37 42 -153 60 -196 29z m179 -43 c10 -13 19 -36 19 -51 0 -15 -9 -38 -19 -51 -17 -21 -30 -24 -100 -27 l-81 -4 0 82 0 82 81 -4 c70 -3 83 -6 100 -27z"/> <path d="M277 292 c-25 -28 -24 -172 1 -195 21 -19 123 -24 165 -8 94 36 104 157 16 202 -52 26 -159 27 -182 1z m177 -23 c28 -13 51 -68 41 -99 -14 -43 -52 -60 -136 -60 l-79 0 0 85 0 85 75 0 c41 0 85 -5 99 -11z"/> <path d="M795 616 c-45 -20 -85 -68 -92 -109 l-6 -37 62 0 c46 0 61 3 61 14 0 24 50 56 87 56 44 0 83 -37 83 -80 0 -51 -38 -80 -105 -80 l-55 0 0 -50 0 -50 50 0 c60 0 94 -15 109 -47 46 -101 -71 -182 -150 -103 -17 16 -28 34 -24 40 4 6 -18 10 -59 10 -76 0 -79 -6 -47 -77 24 -51 90 -93 147 -93 l39 0 -60 25 c-60 24 -115 72 -115 100 0 24 77 20 85 -4 11 -35 63 -60 114 -55 66 6 101 46 101 115 0 44 -4 55 -31 80 -17 16 -36 30 -43 30 -6 1 -27 3 -46 4 -19 2 -38 4 -42 4 -3 1 -4 10 -1 21 5 18 24 25 71 23 7 -1 28 14 47 32 30 27 35 39 35 77 0 61 -37 98 -99 98 -46 0 -95 -21 -104 -45 -8 -20 -77 -21 -77 -1 0 28 45 66 100 86 66 24 72 24 138 5 66 -20 101 -50 112 -98 11 -52 -2 -93 -46 -138 l-36 -36 45 -45 c97 -95 62 -209 -80 -260 l-48 -16 38 -1 c89 -2 158 65 165 159 5 70 -14 113 -64 142 l-35 21 30 18 c88 54 80 199 -14 254 -36 21 -54 25 -126 25 -48 -1 -97 -7 -114 -14z"/> </g> </svg> 